<?xml version="1.0" standalone="no"?>
<svg viewBox="0 0 200 200" xmlns="http://www.w3.org/2000/svg">
  <path fill="#F2F4F8" d="M18.2,-20.4C32,-19.4,57.4,-28.6,67.6,-25.3C77.7,-22,72.5,-6.2,63.3,4.1C54.1,14.4,40.9,19.2,33.6,31.1C26.3,42.9,25.1,61.9,18.9,63.2C12.7,64.4,1.7,48,-9.6,40.9C-20.9,33.8,-32.4,35.9,-32.2,30.9C-31.9,25.8,-19.7,13.4,-21,3.2C-22.3,-7.1,-37,-15.4,-36.9,-17.4C-36.9,-19.5,-22.1,-15.4,-13.4,-18.7C-4.8,-22.1,-2.4,-32.8,-0.1,-32.7C2.2,-32.5,4.4,-21.4,18.2,-20.4Z" transform="translate(100 100)" />
</svg>
