<svg id="Capa_1" enable-background="new 0 0 512 512" height="512" viewBox="0 0 512 512" width="512" xmlns="http://www.w3.org/2000/svg"><g><path d="m452 166h-15v60 60h15c33.09 0 60-26.91 60-60s-26.91-60-60-60z" fill="#d0e4e7"/><path d="m452 286c33.09 0 60-26.91 60-60h-75v60z" fill="#a8d3d8"/><g><g><path d="m165 496h-60c-8.292 0-15-6.708-15-15v-180c0-8.292 6.708-15 15-15h60c8.292 0 15 6.708 15 15v180c0 8.292-6.708 15-15 15z" fill="lightgrey"/></g></g><path d="m210 136h-115.8c-48.108 0-94.137 36.183-94.2 90-.054 49.924 40.416 90 90 90h120l15-30v-60-66.474z" fill="white"/><path d="m90 316h120l15-30v-60h-225c-.054 49.924 40.416 90 90 90z" fill="white"/><path d="m426.5 50.5c-55.2 55.2-130.7 85.5-208.7 85.5h-7.8v90 90h7.8c78 0 153.5 30.3 208.7 85.5 2.7 3 6.6 4.5 10.5 4.5v-180-179.4c-3.9 0-7.8.9-10.5 3.9z" fill="#edf5ff"/><path d="m217.8 316c78 0 153.5 30.3 208.7 85.5 2.7 3 6.6 4.5 10.5 4.5v-180h-227v90z" fill="#d0e4e7"/><path d="m437 16c-8.292 0-15 6.708-15 15v195 195c0 8.292 6.708 15 15 15s15-6.708 15-15v-195-195c0-8.292-6.708-15-15-15z" fill="#e64d2e"/><path d="m437 436c8.292 0 15-6.708 15-15v-195h-30v195c0 8.292 6.708 15 15 15z" fill="#cc2929"/></g></svg>